# xmcd
#
# Track frame offsets: 
#        150
#        18775
#        44931
#        71614
#        81503
#        104127
#        115066
#        128779
#        147602
#        181058
#        196400
#        209059
#
# Disc length: 3124 seconds
#
# Revision: 2
# Processed by: cddbd v1.5.2PL0 Copyright (c) Steve Scherf et al.
# Submitted via: ExactAudioCopy v1.0b3
#
DISCID=be0c320c
DTITLE=??????? - ????????????
DYEAR=1995
DGENRE=
TTITLE0=?????
TTITLE1=????????
TTITLE2=??????
TTITLE3=??????????????????
TTITLE4=??????
TTITLE5=???????
TTITLE6=???????????
TTITLE7=??
TTITLE8=???????
TTITLE9=?????????
TTITLE10=????????
TTITLE11=??????????
EXTD=
EXTT0=
EXTT1=
EXTT2=
EXTT3=
EXTT4=
EXTT5=
EXTT6=
EXTT7=
EXTT8=
EXTT9=
EXTT10=
EXTT11=
PLAYORDER=
